<?xml version="1.0" encoding="UTF-8" standalone="no"?>
<svg
   xmlns:dc="http://purl.org/dc/elements/1.1/"
   xmlns:cc="http://creativecommons.org/ns#"
   xmlns:rdf="http://www.w3.org/1999/02/22-rdf-syntax-ns#"
   xmlns:svg="http://www.w3.org/2000/svg"
   xmlns="http://www.w3.org/2000/svg"
   xmlns:sodipodi="http://sodipodi.sourceforge.net/DTD/sodipodi-0.dtd"
   xmlns:inkscape="http://www.inkscape.org/namespaces/inkscape"
   width="400"
   height="200"
   viewBox="0 0 400 64"
   overflow="visible"
   enable-background="new 0 0 400 64"
   xml:space="preserve"
   version="1.1"
   id="svg3254"
   inkscape:version="0.48.2 r9819"
   sodipodi:docname="tng-logo.svg"
   style="overflow:visible"><metadata
   id="metadata3325"><rdf:RDF><cc:Work
       rdf:about=""><dc:format>image/svg+xml</dc:format><dc:type
         rdf:resource="http://purl.org/dc/dcmitype/StillImage" /></cc:Work></rdf:RDF></metadata><defs
   id="defs3323">



  </defs><sodipodi:namedview
   pagecolor="#ffffff"
   bordercolor="#666666"
   borderopacity="1"
   objecttolerance="10"
   gridtolerance="10"
   guidetolerance="10"
   inkscape:pageopacity="0"
   inkscape:pageshadow="2"
   inkscape:window-width="1867"
   inkscape:window-height="1156"
   id="namedview3321"
   showgrid="false"
   inkscape:zoom="2.1325"
   inkscape:cx="171.86401"
   inkscape:cy="153.92263"
   inkscape:window-x="53"
   inkscape:window-y="0"
   inkscape:window-maximized="1"
   inkscape:current-layer="svg3254" />
  <style
   id="style3256">
    .grey {
      fill: #a2a7ae;
    }
    .blue {
      fill: #0064a6;
    }
  </style>
  <g
   id="TNG"
   transform="translate(109.57796,-64.712778)">
      <path
   style="fill:#0064a6"
   inkscape:connector-curvature="0"
   id="path3261"
   class="blue"
   d="M 28.242,13.459 V 60.453 H 17.133 V 13.459 H 2.266 V 3.544 H 43.11 v 9.915 H 28.242 z" />
      <path
   style="fill:#0064a6"
   inkscape:connector-curvature="0"
   id="path3263"
   class="blue"
   d="M 85.79,60.453 63.251,25.524 V 60.453 H 52.14 V 3.544 h 9.912 L 84.591,38.395 V 3.544 h 11.11 V 60.453 H 85.79 z" />
      <path
   style="fill:#0064a6"
   inkscape:connector-curvature="0"
   id="path3265"
   class="blue"
   d="m 144.056,54.456 c -4.394,4.48 -9.669,6.478 -16.066,6.478 -6.07,0 -11.186,-2.079 -15.345,-6.234 -2.475,-2.479 -3.993,-5.358 -4.637,-8.552 -0.634,-3.198 -0.958,-7.911 -0.958,-14.15 0,-6.231 0.324,-10.948 0.958,-14.147 0.644,-3.276 2.162,-6.072 4.637,-8.55 4.159,-4.159 9.274,-6.233 15.345,-6.233 12.953,0 19.906,8.311 21.42,18.221 h -11.188 c -1.358,-5.515 -4.711,-8.309 -10.232,-8.309 -2.955,0 -5.352,1.039 -7.109,3.035 -2.084,2.636 -2.718,4.718 -2.718,15.983 0,11.19 0.479,13.434 2.718,16.066 1.678,1.999 4.074,2.957 7.109,2.957 3.281,0 5.917,-1.038 7.916,-3.193 1.678,-1.919 2.558,-4.479 2.558,-7.595 v -2.159 h -8.013 v -9.27 h 19.04 v 8.311 c -0.001,8.316 -1.517,13.187 -5.435,17.341 z" />
    </g><g
   id="separator-lines">
      <path
   style="fill:#a2a7ae"
   inkscape:connector-curvature="0"
   id="path3268"
   class="grey"
   d="m 203.781,3.403 h -37.674 v 5.302 h 37.674 V 3.403 z" />
      <path
   style="fill:#a2a7ae"
   inkscape:connector-curvature="0"
   id="path3270"
   class="grey"
   d="m 203.781,16.35 h -37.674 v 5.306 h 37.674 V 16.35 z" />
      <path
   style="fill:#a2a7ae"
   inkscape:connector-curvature="0"
   id="path3272"
   class="grey"
   d="m 203.781,29.295 h -37.674 v 5.302 h 37.674 v -5.302 z" />
      <path
   style="fill:#a2a7ae"
   inkscape:connector-curvature="0"
   id="path3274"
   class="grey"
   d="m 203.781,42.238 h -37.674 v 5.302 h 37.674 v -5.302 z" />
      <path
   style="fill:#a2a7ae"
   inkscape:connector-curvature="0"
   id="path3276"
   class="grey"
   d="m 203.781,55.18 h -37.674 v 5.304 h 37.674 V 55.18 z" />
    </g><g
   id="technology-consulting"
   transform="translate(-113.60609,66.588511)">
      <g
   id="technology">
        <path
   style="fill:#0064a6"
   inkscape:connector-curvature="0"
   id="path3280"
   class="blue"
   d="m 226.641,6.246 v 17.875 h -3.135 V 6.246 h -5.701 V 3.429 h 14.531 v 2.817 h -5.695 z" />
        <path
   style="fill:#0064a6"
   inkscape:connector-curvature="0"
   id="path3282"
   class="blue"
   d="M 235.91,24.121 V 3.429 h 13.219 v 2.817 h -10.08 v 6.043 h 8.605 v 2.792 h -8.605 v 6.218 h 10.08 v 2.822 H 235.91 z" />
        <path
   style="fill:#0064a6"
   inkscape:connector-curvature="0"
   id="path3284"
   class="blue"
   d="m 260.115,24.288 c -2.148,0 -4.014,-0.781 -5.436,-2.206 -2.025,-2.033 -2,-4.328 -2,-8.309 0,-3.981 -0.025,-6.279 2,-8.309 1.422,-1.427 3.287,-2.213 5.436,-2.213 3.807,0 6.654,2.24 7.383,6.365 h -3.201 c -0.486,-2.091 -1.885,-3.543 -4.182,-3.543 -1.217,0 -2.326,0.461 -3.049,1.247 -1.02,1.104 -1.248,2.296 -1.248,6.452 0,4.154 0.229,5.345 1.248,6.452 0.723,0.779 1.832,1.243 3.049,1.243 2.297,0 3.717,-1.449 4.217,-3.541 h 3.166 c -0.697,4.125 -3.639,6.362 -7.383,6.362 z" />
        <path
   style="fill:#0064a6"
   inkscape:connector-curvature="0"
   id="path3286"
   class="blue"
   d="m 283.217,24.121 v -9.04 h -8.396 v 9.04 H 271.68 V 3.429 h 3.141 v 8.831 h 8.396 V 3.429 h 3.143 v 20.692 h -3.143 z" />
        <path
   style="fill:#0064a6"
   inkscape:connector-curvature="0"
   id="path3288"
   class="blue"
   d="M 304.461,24.121 294.9,9.558 v 14.563 h -3.133 V 3.429 h 2.871 L 304.2,17.956 V 3.429 h 3.139 v 20.692 h -2.878 z" />
        <path
   style="fill:#0064a6"
   inkscape:connector-curvature="0"
   id="path3290"
   class="blue"
   d="m 324.891,22.082 c -1.428,1.425 -3.252,2.206 -5.469,2.206 -2.203,0 -4.004,-0.781 -5.434,-2.206 -2.035,-2.033 -2.004,-4.328 -2.004,-8.309 0,-3.981 -0.031,-6.279 2.004,-8.309 1.43,-1.427 3.23,-2.213 5.434,-2.213 2.217,0 4.041,0.786 5.469,2.213 2.037,2.029 1.971,4.327 1.971,8.309 -0.001,3.981 0.066,6.276 -1.971,8.309 z M 322.504,7.349 c -0.729,-0.783 -1.863,-1.274 -3.082,-1.274 -1.215,0 -2.352,0.491 -3.078,1.274 -1.018,1.104 -1.217,2.269 -1.217,6.425 0,4.154 0.199,5.319 1.217,6.42 0.727,0.784 1.863,1.275 3.078,1.275 1.219,0 2.354,-0.491 3.082,-1.275 1.02,-1.101 1.221,-2.266 1.221,-6.42 0,-4.157 -0.202,-5.322 -1.221,-6.425 z" />
        <path
   style="fill:#0064a6"
   inkscape:connector-curvature="0"
   id="path3292"
   class="blue"
   d="M 331.514,24.121 V 3.429 h 3.143 v 17.87 h 9.967 v 2.822 h -13.11 z" />
        <path
   style="fill:#0064a6"
   inkscape:connector-curvature="0"
   id="path3294"
   class="blue"
   d="m 359.582,22.082 c -1.42,1.425 -3.254,2.206 -5.463,2.206 -2.215,0 -4.014,-0.781 -5.432,-2.206 -2.039,-2.033 -2.012,-4.328 -2.012,-8.309 0,-3.981 -0.027,-6.279 2.012,-8.309 1.418,-1.427 3.217,-2.213 5.432,-2.213 2.209,0 4.043,0.786 5.463,2.213 2.035,2.029 1.977,4.327 1.977,8.309 0,3.981 0.058,6.276 -1.977,8.309 z M 357.201,7.349 c -0.725,-0.783 -1.863,-1.274 -3.082,-1.274 -1.227,0 -2.357,0.491 -3.076,1.274 -1.021,1.104 -1.223,2.269 -1.223,6.425 0,4.154 0.201,5.319 1.223,6.42 0.719,0.784 1.85,1.275 3.076,1.275 1.219,0 2.357,-0.491 3.082,-1.275 1.02,-1.101 1.219,-2.266 1.219,-6.42 0,-4.157 -0.199,-5.322 -1.219,-6.425 z" />
        <path
   style="fill:#0064a6"
   inkscape:connector-curvature="0"
   id="path3296"
   class="blue"
   d="m 378.586,21.936 c -1.564,1.656 -3.516,2.353 -5.695,2.353 -2.152,0 -4.01,-0.781 -5.438,-2.206 -2.025,-2.033 -2.002,-4.328 -2.002,-8.309 0,-3.981 -0.023,-6.279 2.002,-8.309 1.428,-1.427 3.229,-2.213 5.438,-2.213 4.391,0 6.943,2.877 7.521,6.425 h -3.158 c -0.525,-2.268 -2.041,-3.603 -4.363,-3.603 -1.221,0 -2.326,0.491 -3.049,1.274 -1.023,1.104 -1.26,2.269 -1.26,6.425 0,4.154 0.236,5.345 1.26,6.452 0.723,0.779 1.828,1.243 3.049,1.243 1.367,0 2.553,-0.52 3.373,-1.449 0.758,-0.871 1.045,-1.917 1.045,-3.254 V 15.6 h -4.418 v -2.673 h 7.553 v 3.167 c -0.001,2.676 -0.493,4.389 -1.858,5.842 z" />
        <path
   style="fill:#0064a6"
   inkscape:connector-curvature="0"
   id="path3298"
   class="blue"
   d="m 391.545,15.601 v 8.521 h -3.143 V 15.601 L 382.214,3.429 h 3.432 l 4.326,9.093 4.338,-9.093 h 3.424 l -6.189,12.172 z" />
      </g>
      <g
   id="consulting">
        <path
   style="fill:#0064a6"
   inkscape:connector-curvature="0"
   id="path3301"
   class="blue"
   d="m 226.318,60.614 c -2.141,0 -4.01,-0.783 -5.434,-2.208 -2.029,-2.031 -2,-4.327 -2,-8.309 0,-3.982 -0.029,-6.28 2,-8.312 1.424,-1.425 3.293,-2.211 5.434,-2.211 3.809,0 6.66,2.241 7.383,6.365 h -3.191 c -0.498,-2.091 -1.893,-3.543 -4.191,-3.543 -1.217,0 -2.318,0.466 -3.051,1.247 -1.016,1.104 -1.248,2.296 -1.248,6.453 0,4.154 0.232,5.347 1.248,6.449 0.732,0.781 1.834,1.248 3.051,1.248 2.299,0 3.717,-1.45 4.219,-3.543 h 3.164 c -0.702,4.126 -3.638,6.364 -7.384,6.364 z" />
        <path
   style="fill:#0064a6"
   inkscape:connector-curvature="0"
   id="path3303"
   class="blue"
   d="m 250.91,58.406 c -1.432,1.425 -3.256,2.208 -5.473,2.208 -2.207,0 -4.004,-0.783 -5.436,-2.208 -2.033,-2.031 -2.002,-4.327 -2.002,-8.309 0,-3.982 -0.031,-6.28 2.002,-8.312 1.432,-1.425 3.229,-2.211 5.436,-2.211 2.217,0 4.041,0.786 5.473,2.211 2.033,2.031 1.973,4.329 1.973,8.312 0,3.982 0.06,6.278 -1.973,8.309 z m -2.385,-14.731 c -0.727,-0.781 -1.867,-1.277 -3.088,-1.277 -1.217,0 -2.352,0.496 -3.072,1.277 -1.023,1.103 -1.221,2.266 -1.221,6.423 0,4.154 0.197,5.316 1.221,6.422 0.721,0.786 1.855,1.275 3.072,1.275 1.221,0 2.361,-0.489 3.088,-1.275 1.018,-1.105 1.219,-2.268 1.219,-6.422 0,-4.158 -0.201,-5.321 -1.219,-6.423 z" />
        <path
   style="fill:#0064a6"
   inkscape:connector-curvature="0"
   id="path3305"
   class="blue"
   d="m 271.107,60.441 -9.568,-14.559 v 14.559 h -3.141 V 39.753 h 2.881 l 9.559,14.528 V 39.753 h 3.137 v 20.688 h -2.868 z" />
        <path
   style="fill:#0064a6"
   inkscape:connector-curvature="0"
   id="path3307"
   class="blue"
   d="m 285.75,60.614 c -3.109,0 -5.352,-0.724 -7.324,-2.729 l 2.092,-2.063 c 1.512,1.507 3.164,1.974 5.287,1.974 2.703,0 4.271,-1.16 4.271,-3.164 0,-0.905 -0.26,-1.659 -0.811,-2.155 -0.525,-0.489 -1.045,-0.694 -2.27,-0.869 l -2.441,-0.349 c -1.688,-0.234 -3.021,-0.813 -3.92,-1.654 -1.021,-0.961 -1.51,-2.269 -1.51,-3.952 0,-3.605 2.611,-6.076 6.908,-6.076 2.732,0 4.652,0.699 6.424,2.358 l -2,1.971 c -1.279,-1.218 -2.76,-1.592 -4.508,-1.592 -2.441,0 -3.779,1.39 -3.779,3.224 0,0.754 0.238,1.422 0.785,1.916 0.521,0.462 1.365,0.812 2.328,0.961 l 2.357,0.345 c 1.912,0.292 2.994,0.758 3.857,1.542 1.137,0.985 1.688,2.47 1.688,4.243 0.002,3.804 -3.108,6.069 -7.434,6.069 z" />
        <path
   style="fill:#0064a6"
   inkscape:connector-curvature="0"
   id="path3309"
   class="blue"
   d="m 305.363,60.614 c -4.217,0 -7.41,-2.875 -7.41,-7.15 V 39.753 h 3.139 v 13.568 c 0,2.76 1.678,4.474 4.271,4.474 2.58,0 4.301,-1.714 4.301,-4.474 V 39.753 h 3.133 v 13.711 c 0,4.275 -3.219,7.15 -7.434,7.15 z" />
        <path
   style="fill:#0064a6"
   inkscape:connector-curvature="0"
   id="path3311"
   class="blue"
   d="M 318.76,60.441 V 39.753 h 3.137 v 17.869 h 9.965 v 2.819 H 318.76 z" />
        <path
   style="fill:#0064a6"
   inkscape:connector-curvature="0"
   id="path3313"
   class="blue"
   d="m 340.984,42.572 v 17.869 h -3.141 V 42.572 h -5.693 v -2.819 h 14.525 v 2.819 h -5.691 z" />
        <path
   style="fill:#0064a6"
   inkscape:connector-curvature="0"
   id="path3315"
   class="blue"
   d="M 351.123,60.441 V 39.753 h 3.139 v 20.688 h -3.139 z" />
        <path
   style="fill:#0064a6"
   inkscape:connector-curvature="0"
   id="path3317"
   class="blue"
   d="m 373.234,60.441 -9.555,-14.559 v 14.559 h -3.141 V 39.753 h 2.883 l 9.561,14.528 V 39.753 h 3.137 v 20.688 h -2.885 z" />
        <path
   style="fill:#0064a6"
   inkscape:connector-curvature="0"
   id="path3319"
   class="blue"
   d="m 394.775,58.262 c -1.568,1.656 -3.516,2.353 -5.695,2.353 -2.152,0 -4.016,-0.783 -5.438,-2.208 -2.037,-2.031 -2.01,-4.327 -2.01,-8.309 0,-3.982 -0.027,-6.28 2.01,-8.312 1.422,-1.425 3.221,-2.211 5.438,-2.211 4.381,0 6.943,2.877 7.521,6.425 h -3.166 c -0.523,-2.27 -2.031,-3.603 -4.355,-3.603 -1.227,0 -2.33,0.496 -3.051,1.277 -1.018,1.103 -1.25,2.266 -1.25,6.423 0,4.154 0.232,5.347 1.25,6.449 0.721,0.781 1.824,1.248 3.051,1.248 1.365,0 2.557,-0.518 3.367,-1.45 0.76,-0.875 1.043,-1.921 1.043,-3.254 v -1.162 h -4.41 v -2.677 h 7.551 v 3.173 c 0,2.669 -0.494,4.385 -1.856,5.838 z" />
      </g>
    </g>
</svg>